<?xml version="1.0" encoding="UTF-8" standalone="no"?>
<svg
   version="1.1"
   id="Layer_1"
   x="0"
   y="0"
   viewBox="180 0 90 30"
   xml:space="preserve"
   sodipodi:docname="mpdb_fe_icons.svg"
   width="90"
   height="30"
   inkscape:version="1.3.2 (091e20ef0f, 2023-11-25, custom)"
   xmlns:inkscape="http://www.inkscape.org/namespaces/inkscape"
   xmlns:sodipodi="http://sodipodi.sourceforge.net/DTD/sodipodi-0.dtd"
   xmlns="http://www.w3.org/2000/svg"
   xmlns:svg="http://www.w3.org/2000/svg"><defs
     id="defs94" /><sodipodi:namedview
     id="namedview94"
     pagecolor="#ffffff"
     bordercolor="#666666"
     borderopacity="1.0"
     inkscape:showpageshadow="2"
     inkscape:pageopacity="0.0"
     inkscape:pagecheckerboard="0"
     inkscape:deskcolor="#d1d1d1"
     showgrid="false"
     inkscape:zoom="7.8666667"
     inkscape:cx="45.190678"
     inkscape:cy="25.36017"
     inkscape:window-width="1920"
     inkscape:window-height="1173"
     inkscape:window-x="3840"
     inkscape:window-y="0"
     inkscape:window-maximized="1"
     inkscape:current-layer="Layer_1" /><style
     id="style1">.st0{fill:#333}.st1{fill:#930}.st2{fill:#005be3}</style><path
     d="m 68.7,2226.3 -4.7,-1.7 v -2.3 c 1.4,-1.2 2.4,-3.1 2.4,-5.3 v -0.2 c -0.3,0.1 -0.7,0.2 -1,0.2 -1.7,0 -2.8,-0.3 -3.8,-1.6 -0.9,0.9 -2.4,1.6 -3.7,1.6 -0.6,0 -1.7,-0.4 -2.5,-0.7 v 0.7 c 0,2.3 1.1,4.4 2.6,5.5 v 2.1 l -4.7,1.7 c -1.4,0.5 -2.3,1.8 -2.3,3.3 v 2.4 h 20 v -2.4 c 0,-1.4 -0.9,-2.8 -2.3,-3.3 z"
     id="path16" /><path
     d="m 61.2,2214.4 0.4,-0.8 0.5,0.8 c 0.8,1.4 1.7,1.7 3.3,1.7 0.3,0 0.6,-0.1 0.9,-0.2 -0.5,-3 -2.7,-5.3 -5.4,-5.3 -2.5,0 -4.6,2 -5.3,4.7 0.8,0.4 1.8,0.8 2.3,0.8 1.3,-0.1 2.8,-0.8 3.3,-1.7 z"
     id="path17" /><path
     class="st0"
     d="m 192,8.3 v 11.8 h -2.5 c -1.9,0 -3.5,1.6 -3.5,3.5 0,1.9 1.6,3.5 3.5,3.5 1.9,0 3.5,-1.6 3.5,-3.5 V 12.5 l 10,-4.1 v 7.8 h -2.5 c -1.9,0 -3.5,1.6 -3.5,3.5 0,1.9 1.6,3.5 3.5,3.5 1.9,0 3.5,-1.6 3.5,-3.5 V 3.4 Z"
     id="path30"
     style="fill:#c82333;fill-opacity:1" /><path
     class="st0"
     d="m 226.6,3.6 c -4.7,0 -9.6,3.1 -9.6,8.4 0,0.2 -0.4,0.9 -0.7,1.5 -0.7,1.2 -1.5,2.6 -1.4,3.7 v 0.1 c 0,0.2 0,0.5 0.2,0.7 0.2,0.3 0.6,0.5 1,0.5 h 1 c 0,1.2 0.1,3.7 1,4.5 0.8,0.8 1.8,1 3.6,1 v 3 c 0,0.3 0.2,0.5 0.5,0.5 h 10 c 0.3,0 0.5,-0.2 0.5,-0.5 v -5.5 c 2.7,-1.7 4,-4.4 4,-8 C 236.6,8 232.2,3.6 226.6,3.6 Z m 4.1,11.4 c 0,1 -0.9,1.9 -1.9,1.9 -1,0 -1.9,-0.9 -1.9,-1.9 0,-1 0.9,-1.9 1.9,-1.9 h 0.4 v -2.8 l -4.5,1.8 v 5.1 c 0,1 -0.9,1.9 -1.9,1.9 -1,0 -1.9,-0.9 -1.9,-1.9 0,-1 0.9,-1.9 1.9,-1.9 h 0.4 v -5 l 7.5,-3.1 z"
     id="path33"
     style="fill:#c82333;fill-opacity:1" /><g
     id="g53"
     style="fill:#c82333;fill-opacity:1"><path
       class="st0"
       d="m 243.6,26.2 c 0,0.1 0,0.3 0.1,0.4 0.1,0.1 0.2,0.2 0.4,0.2 h 13.1 c 0.1,0 0.3,-0.1 0.4,-0.2 0.1,-0.1 0.1,-0.2 0.1,-0.4 -0.2,-3.1 -1.9,-4.8 -5.1,-5.4 v -1.1 h 0.5 c 0.3,0 0.5,-0.2 0.5,-0.5 v -2 c 0,-0.3 -0.2,-0.5 -0.5,-0.5 h -5 c -0.3,0 -0.5,0.2 -0.5,0.5 v 2 c 0,0.3 0.2,0.5 0.5,0.5 h 0.5 v 1.1 c -3.1,0.5 -4.7,2.3 -5,5.4 z M 266.9,3.1 c -0.2,-0.2 -0.5,-0.2 -0.7,0 l -2.6,2.6 V 3.2 c 0,-0.2 -0.1,-0.3 -0.2,-0.4 -0.1,-0.1 -0.3,-0.1 -0.5,0 -1.1,0.5 -2.7,1.6 -4.3,3.2 -3,3 -4.3,6.3 -3.3,8 l -1.3,1.3 c -0.2,0.2 -0.2,0.5 0,0.7 0.2,0.2 0.5,0.2 0.7,0 l 1.3,-1.3 c 0.5,0.3 1.1,0.5 1.8,0.5 1.7,0 3.8,-0.9 5.6,-2.6 0.2,-0.1 0.2,-0.4 0.1,-0.6 -0.1,-0.2 -0.3,-0.3 -0.5,-0.3 h -4 l 1,-1 h 4.6 c 0.3,0 0.5,-0.2 0.5,-0.5 0,-0.3 -0.2,-0.5 -0.5,-0.5 H 261 l 1,-1 h 4.1 c 0.2,0 0.3,-0.1 0.4,-0.3 1.3,-2.2 1.4,-4.1 0.4,-5.3 0,0.1 0,0.1 0,0 z"
       id="path53"
       style="fill:#c82333;fill-opacity:1" /></g></svg>
