<?xml version="1.0" encoding="UTF-8" standalone="no"?>
<!-- Created with Inkscape (http://www.inkscape.org/) -->

<svg
   width="100.00009mm"
   height="100.00009mm"
   viewBox="0 0 100.00009 100.00009"
   version="1.1"
   id="svg5"
   xmlns="http://www.w3.org/2000/svg"
   xmlns:svg="http://www.w3.org/2000/svg">
  <defs
     id="defs2" />
  <g
     id="layer1">
    <path
       id="path31"
       style="fill:#000000;fill-rule:evenodd;stroke-width:0.999999"
       d="M 188.97656,0 A 188.97638,188.97638 0 0 0 0,188.97656 188.97638,188.97638 0 0 0 188.97656,377.95312 188.97638,188.97638 0 0 0 377.95312,188.97656 188.97638,188.97638 0 0 0 188.97656,0 Z m 0,37.794922 A 151.1811,151.1811 0 0 1 340.1582,188.97656 151.1811,151.1811 0 0 1 188.97656,340.1582 151.1811,151.1811 0 0 1 37.794922,188.97656 151.1811,151.1811 0 0 1 188.97656,37.794922 Z"
       transform="scale(0.26458333)" />
    <path
       id="path228"
       style="fill:#000000;stroke-width:0.264583"
       d="M 66.21092,25 50.961721,40.61817 34.984404,25.0186 A 30,30 0 0 0 25,35.02523 L 40.60318,50.25944 25.003101,66.23676 a 30,30 0 0 0 10.006624,9.9844 L 50.244454,60.61798 66.229007,76.2253 A 30,30 0 0 0 76.21031,66.21557 L 60.602995,50.97671 76.199976,35.00301 A 30,30 0 0 0 66.21092,25 Z" />
  </g>
</svg>
