<?xml version="1.0" encoding="UTF-8" standalone="no"?>
<!-- Created with Inkscape (http://www.inkscape.org/) -->

<svg
   width="125.00012mm"
   height="125.00012mm"
   viewBox="0 0 100.0001 100.0001"
   version="1.1"
   id="svg5"
   sodipodi:docname="x.svg"
   inkscape:version="1.1.2 (0a00cf5339, 2022-02-04)"
   xmlns:inkscape="http://www.inkscape.org/namespaces/inkscape"
   xmlns:sodipodi="http://sodipodi.sourceforge.net/DTD/sodipodi-0.dtd"
   xmlns="http://www.w3.org/2000/svg"
   xmlns:svg="http://www.w3.org/2000/svg">
  <sodipodi:namedview
     id="namedview76"
     pagecolor="#ffffff"
     bordercolor="#666666"
     borderopacity="1.0"
     inkscape:pageshadow="2"
     inkscape:pageopacity="0.0"
     inkscape:pagecheckerboard="0"
     inkscape:document-units="mm"
     showgrid="false"
     inkscape:zoom="2.3045187"
     inkscape:cx="237.35976"
     inkscape:cy="189.19352"
     inkscape:window-width="956"
     inkscape:window-height="1055"
     inkscape:window-x="0"
     inkscape:window-y="21"
     inkscape:window-maximized="1"
     inkscape:current-layer="svg5"
     fit-margin-top="0"
     fit-margin-left="0"
     fit-margin-right="0"
     fit-margin-bottom="0" />
  <defs
     id="defs2" />
  <g
     id="layer1">
    <path
       id="path31"
       style="fill:#000000;fill-rule:evenodd;stroke-width:0.999999"
       d="M 188.97656,0 A 188.97638,188.97638 0 0 0 0,188.97656 188.97638,188.97638 0 0 0 188.97656,377.95312 188.97638,188.97638 0 0 0 377.95312,188.97656 188.97638,188.97638 0 0 0 188.97656,0 Z m 0,37.794922 A 151.1811,151.1811 0 0 1 340.1582,188.97656 151.1811,151.1811 0 0 1 188.97656,340.1582 151.1811,151.1811 0 0 1 37.794922,188.97656 151.1811,151.1811 0 0 1 188.97656,37.794922 Z"
       transform="scale(0.26458333)" />
    <path
       id="path228"
       style="fill:#000000;stroke-width:0.264583"
       d="M 66.21092,25 50.961721,40.61817 34.984404,25.0186 A 30,30 0 0 0 25,35.02523 L 40.60318,50.25944 25.003101,66.23676 a 30,30 0 0 0 10.006624,9.9844 L 50.244454,60.61798 66.229007,76.2253 A 30,30 0 0 0 76.21031,66.21557 L 60.602995,50.97671 76.199976,35.00301 A 30,30 0 0 0 66.21092,25 Z" />
  </g>
</svg>
